<svg xmlns="http://www.w3.org/2000/svg" xmlns:xlink="http://www.w3.org/1999/xlink" width="500" zoomAndPan="magnify" viewBox="0 0 375 374.999991" height="500" preserveAspectRatio="xMidYMid meet" version="1.0"><defs><g/><clipPath id="da1e66bd82"><path d="M 73.636719 73.636719 L 301.636719 73.636719 L 301.636719 301.636719 L 73.636719 301.636719 Z M 73.636719 73.636719 " clip-rule="nonzero"/></clipPath><clipPath id="098ea3530c"><path d="M 187.5 48.519531 L 326.25 48.519531 L 326.25 326.769531 L 187.5 326.769531 Z M 187.5 48.519531 " clip-rule="nonzero"/></clipPath></defs><g clip-path="url(#da1e66bd82)"><path fill="#000000" d="M 292.640625 143.289062 C 286.886719 129.695312 278.730469 117.5625 268.167969 107.101562 C 257.605469 96.644531 245.472656 88.382812 231.980469 82.628906 C 217.964844 76.667969 203.007812 73.636719 187.636719 73.636719 L 187.636719 83.046875 C 201.753906 83.046875 215.457031 85.765625 228.320312 91.3125 C 240.765625 96.539062 251.957031 104.070312 261.578125 113.691406 C 271.199219 123.3125 278.730469 134.503906 283.960938 146.949219 C 289.398438 159.816406 292.222656 173.515625 292.222656 187.636719 C 292.222656 201.753906 289.503906 215.457031 283.960938 228.320312 C 278.730469 240.765625 271.199219 251.957031 261.578125 261.578125 C 251.957031 271.199219 240.765625 278.730469 228.320312 283.960938 C 215.457031 289.398438 201.753906 292.222656 187.636719 292.222656 C 173.515625 292.222656 159.816406 289.503906 146.949219 283.960938 C 134.503906 278.730469 123.3125 271.199219 113.691406 261.578125 C 104.070312 251.957031 96.539062 240.765625 91.3125 228.320312 C 85.871094 215.457031 83.046875 201.753906 83.046875 187.636719 C 83.046875 187.636719 83.046875 187.53125 83.046875 187.53125 L 73.636719 187.53125 C 73.636719 187.53125 73.636719 187.636719 73.636719 187.636719 C 73.636719 203.007812 76.667969 217.964844 82.628906 231.980469 C 88.382812 245.578125 96.539062 257.707031 107.101562 268.167969 C 117.5625 278.625 129.796875 286.886719 143.289062 292.640625 C 157.304688 298.601562 172.261719 301.636719 187.636719 301.636719 C 203.007812 301.636719 217.964844 298.601562 231.980469 292.640625 C 245.578125 286.886719 257.707031 278.730469 268.167969 268.167969 C 278.625 257.707031 286.886719 245.472656 292.640625 231.980469 C 298.601562 217.964844 301.636719 203.007812 301.636719 187.636719 C 301.636719 172.261719 298.601562 157.410156 292.640625 143.289062 Z M 292.640625 143.289062 " fill-opacity="1" fill-rule="nonzero"/></g><g clip-path="url(#098ea3530c)"><path fill="#000000" d="M 315.300781 133.464844 C 308.300781 117 298.246094 102.066406 285.515625 89.304688 C 272.785156 76.539062 257.894531 66.457031 241.472656 59.4375 C 224.289062 52.289062 206.210938 48.589844 187.5 48.589844 L 187.5 60.074219 C 204.683594 60.074219 221.234375 63.519531 236.890625 70.160156 C 252.039062 76.539062 265.660156 85.730469 277.371094 97.472656 C 289.082031 109.214844 298.246094 122.871094 304.609375 138.058594 C 311.230469 153.757812 314.667969 170.476562 314.667969 187.707031 C 314.667969 204.9375 311.355469 221.65625 304.609375 237.355469 C 298.246094 252.542969 289.082031 266.203125 277.371094 277.945312 C 265.660156 289.6875 252.039062 298.875 236.890625 305.257812 C 221.234375 311.894531 204.683594 315.210938 187.5 315.210938 L 187.5 326.699219 C 206.210938 326.699219 224.289062 322.996094 241.472656 315.722656 C 258.019531 308.703125 272.785156 298.746094 285.515625 285.855469 C 298.246094 272.964844 308.300781 258.160156 315.300781 241.695312 C 322.558594 224.59375 326.25 206.34375 326.25 187.578125 C 326.25 168.816406 322.429688 150.695312 315.300781 133.464844 Z M 315.300781 133.464844 " fill-opacity="1" fill-rule="nonzero"/></g><g fill="#6e8f5e" fill-opacity="0.302"><g transform="translate(110.043572, 232.801698)"><g><path d="M 10.6875 0 L 10.6875 -92.078125 L 36.671875 -92.078125 C 44.679688 -92.078125 51.765625 -90.304688 57.921875 -86.765625 C 64.078125 -83.222656 68.832031 -78.179688 72.1875 -71.640625 C 75.539062 -65.109375 77.238281 -57.609375 77.28125 -49.140625 L 77.28125 -43.25 C 77.28125 -34.570312 75.601562 -26.960938 72.25 -20.421875 C 68.894531 -13.890625 64.109375 -8.875 57.890625 -5.375 C 51.671875 -1.875 44.429688 -0.0820312 36.171875 0 Z M 22.828125 -82.078125 L 22.828125 -9.921875 L 35.609375 -9.921875 C 44.960938 -9.921875 52.242188 -12.832031 57.453125 -18.65625 C 62.660156 -24.476562 65.265625 -32.765625 65.265625 -43.515625 L 65.265625 -48.890625 C 65.265625 -59.335938 62.804688 -67.457031 57.890625 -73.25 C 52.984375 -79.050781 46.019531 -81.992188 37 -82.078125 Z M 22.828125 -82.078125 "/></g></g></g><g fill="#6e8f5e" fill-opacity="0.302"><g transform="translate(194.974955, 232.801698)"><g><path d="M 19.796875 -9.921875 L 72.46875 -9.921875 L 72.46875 0 L 5.4375 0 L 5.4375 -9.109375 L 55.90625 -82.078125 L 6.265625 -82.078125 L 6.265625 -92.078125 L 70.453125 -92.078125 L 70.453125 -83.15625 Z M 19.796875 -9.921875 "/></g></g></g><g fill="#6e8f5e" fill-opacity="0.502"><g transform="translate(106.430427, 231.900849)"><g><path d="M 10.6875 0 L 10.6875 -92.078125 L 36.671875 -92.078125 C 44.679688 -92.078125 51.765625 -90.304688 57.921875 -86.765625 C 64.078125 -83.222656 68.832031 -78.179688 72.1875 -71.640625 C 75.539062 -65.109375 77.238281 -57.609375 77.28125 -49.140625 L 77.28125 -43.25 C 77.28125 -34.570312 75.601562 -26.960938 72.25 -20.421875 C 68.894531 -13.890625 64.109375 -8.875 57.890625 -5.375 C 51.671875 -1.875 44.429688 -0.0820312 36.171875 0 Z M 22.828125 -82.078125 L 22.828125 -9.921875 L 35.609375 -9.921875 C 44.960938 -9.921875 52.242188 -12.832031 57.453125 -18.65625 C 62.660156 -24.476562 65.265625 -32.765625 65.265625 -43.515625 L 65.265625 -48.890625 C 65.265625 -59.335938 62.804688 -67.457031 57.890625 -73.25 C 52.984375 -79.050781 46.019531 -81.992188 37 -82.078125 Z M 22.828125 -82.078125 "/></g></g></g><g fill="#6e8f5e" fill-opacity="0.502"><g transform="translate(191.361811, 231.900849)"><g><path d="M 19.796875 -9.921875 L 72.46875 -9.921875 L 72.46875 0 L 5.4375 0 L 5.4375 -9.109375 L 55.90625 -82.078125 L 6.265625 -82.078125 L 6.265625 -92.078125 L 70.453125 -92.078125 L 70.453125 -83.15625 Z M 19.796875 -9.921875 "/></g></g></g><g fill="#000000" fill-opacity="1"><g transform="translate(102.817283, 230.999985)"><g><path d="M 10.6875 0 L 10.6875 -92.078125 L 36.671875 -92.078125 C 44.679688 -92.078125 51.765625 -90.304688 57.921875 -86.765625 C 64.078125 -83.222656 68.832031 -78.179688 72.1875 -71.640625 C 75.539062 -65.109375 77.238281 -57.609375 77.28125 -49.140625 L 77.28125 -43.25 C 77.28125 -34.570312 75.601562 -26.960938 72.25 -20.421875 C 68.894531 -13.890625 64.109375 -8.875 57.890625 -5.375 C 51.671875 -1.875 44.429688 -0.0820312 36.171875 0 Z M 22.828125 -82.078125 L 22.828125 -9.921875 L 35.609375 -9.921875 C 44.960938 -9.921875 52.242188 -12.832031 57.453125 -18.65625 C 62.660156 -24.476562 65.265625 -32.765625 65.265625 -43.515625 L 65.265625 -48.890625 C 65.265625 -59.335938 62.804688 -67.457031 57.890625 -73.25 C 52.984375 -79.050781 46.019531 -81.992188 37 -82.078125 Z M 22.828125 -82.078125 "/></g></g></g><g fill="#000000" fill-opacity="1"><g transform="translate(187.748666, 230.999985)"><g><path d="M 19.796875 -9.921875 L 72.46875 -9.921875 L 72.46875 0 L 5.4375 0 L 5.4375 -9.109375 L 55.90625 -82.078125 L 6.265625 -82.078125 L 6.265625 -92.078125 L 70.453125 -92.078125 L 70.453125 -83.15625 Z M 19.796875 -9.921875 "/></g></g></g></svg>